<svg xmlns="http://www.w3.org/2000/svg" viewBox="0 0 797.5 834.5">
  <ellipse cx="308.5" cy="780" fill="#373e47" rx="308.5" ry="54.5"/>
  <circle cx="496" cy="301.5" r="301.5" fill="#373e47"/>
  <circle cx="496" cy="301.5" r="248.9" opacity=".1"/>
  <circle cx="496" cy="301.5" r="204" opacity=".1"/>
  <circle cx="496" cy="301.5" r="146.3" opacity=".1"/>
  <path fill="#636e7b" d="M197.2 328.5s-23.7 66.7-13.2 90.4 27.2 46.5 27.2 46.5-6.1-132.5-14-137z"/>
  <path d="M197.2 328.5s-23.7 66.7-13.2 90.4 27.2 46.5 27.2 46.5-6.1-132.5-14-137z" opacity=".1"/>
  <path fill="#444c56" d="M213.9 483s-1.8 16.7-2.7 17.6.9 2.6 0 5.2-1.7 6.2 0 7-9.6 78.2-9.6 78.2-28.1 36.9-16.7 94.8l3.5 58.8s27.2 1.8 27.2-7.9c0 0-1.7-11.4-1.7-16.7s4.3-5.2 1.7-7.9-2.6-4.4-2.6-4.4 4.4-3.5 3.5-4.3 7.9-63.3 7.9-63.3 9.6-9.6 9.6-14.9V620s4.4-11.5 4.4-12.3 23.7-54.5 23.7-54.5l9.7 38.7 10.5 55.3s5.3 50 15.8 69.3c0 0 18.5 63.2 18.5 61.5s30.7-6.2 29.8-14S328 645.3 328 645.3l4.4-164.2z"/>
  <path fill="#444c56" d="M190.1 740.2s-23.7 46.6-7.9 48.3 22 1.8 29-5.3c3.9-3.8 11.6-9 17.9-12.8a23.1 23.1 0 0011-22c-.5-4.3-2.1-7.8-6-8.2-10.6-.8-22.9-10.5-22.9-10.5zM321 774.5s-23.7 46.5-8 48.3 22 1.7 29-5.3c3.9-3.9 11.6-9 17.9-12.9a23.1 23.1 0 0011-22c-.5-4.3-2.1-7.8-6-8.1-10.6-1-22.9-10.6-22.9-10.6z"/>
  <circle cx="295.9" cy="215.4" r="36.9" fill="#768390"/>
  <path fill="#768390" d="M272.2 227.6S245.8 276 243.7 276s47.5 15.8 47.5 15.8 13.7-46.4 15.8-50.6z"/>
  <path fill="#636e7b" d="M312.6 280.6s-52.7-29-58-28-61.4 50-60.5 70.2 7.9 53.5 7.9 53.5 2.6 93 7.9 94-.9 16.6.9 16.6 122.9 0 123.8-2.6-22-203.7-22-203.7z"/>
  <path fill="#768390" d="M342 489.1s16.7 51 2.7 49.2-20.2-43.9-20.2-43.9z"/>
  <path fill="#636e7b" d="M297.3 277.6s-32.5 7-27.3 50.9 15 87.8 15 87.8l32.4 71 3.6 13.3 23.7-6.2L327 392.6s-6.1-108.9-14-112.4a34 34 0 00-15.8-2.6z"/>
  <path d="M277.5 415l40.4 71.9-34-75.8-6.4 3.9z" opacity=".1"/>
  <path fill="#444c56" d="M332.6 204.6l.2-2.9 5.6 1.4a6.3 6.3 0 00-2.5-4.6l6-.3a64.5 64.5 0 00-43.2-26.7c-13-1.8-27.3.9-36.2 10.5-4.3 4.6-7 10.5-8.9 16.6-3.5 11.1-4.2 24.4 3.1 33.4 7.5 9.2 20.6 11 32.4 12.1 4.2.4 8.5.8 12.4-.8a29.7 29.7 0 00-1.7-13 8.7 8.7 0 01-.8-4.2c.5-3.5 5.2-4.4 8.7-4s7.7 1.3 10-1.4c1.6-1.9 1.5-4.6 1.8-7 .5-6.7 13-7.7 13.1-9.1z"/>
</svg>
