<?xml version="1.0" standalone="no"?>
<!DOCTYPE svg PUBLIC "-//W3C//DTD SVG 20010904//EN"
 "http://www.w3.org/TR/2001/REC-SVG-20010904/DTD/svg10.dtd">
<svg version="1.0" xmlns="http://www.w3.org/2000/svg"
 width="700.000000pt" height="700.000000pt" viewBox="0 0 700.000000 700.000000"
 preserveAspectRatio="xMidYMid meet">
<metadata>
Created by potrace 1.14, written by Peter Selinger 2001-2017
</metadata>
<g transform="translate(0.000000,700.000000) scale(0.100000,-0.100000)"
fill="#000000" stroke="none">
<path d="M3140 6883 c-67 -6 -290 -34 -313 -39 -12 -2 -34 -6 -50 -9 -61 -12
-176 -37 -232 -51 -33 -9 -67 -17 -75 -19 -8 -2 -71 -22 -140 -45 -296 -99
-563 -228 -807 -391 -505 -336 -898 -780 -1166 -1317 -163 -326 -281 -704
-322 -1027 -4 -27 -8 -61 -11 -75 -19 -118 -26 -555 -11 -715 9 -96 27 -224
42 -305 3 -14 7 -41 10 -60 3 -19 8 -43 11 -52 3 -9 6 -25 8 -35 12 -60 53
-203 87 -306 239 -720 702 -1328 1339 -1758 52 -35 104 -69 115 -75 11 -6 40
-23 65 -38 81 -48 313 -161 410 -200 52 -21 109 -44 125 -51 127 -54 489 -145
670 -170 97 -12 111 -14 190 -22 99 -10 524 -9 625 1 424 41 827 158 1203 347
229 115 462 268 647 423 107 90 318 298 404 399 386 451 649 999 760 1583 6
31 14 82 22 139 3 28 8 58 10 68 12 66 19 215 19 417 0 264 -5 329 -41 555
-16 104 -20 123 -38 203 -101 435 -294 864 -550 1217 -226 312 -506 587 -827
813 -64 45 -121 82 -127 82 -6 0 -12 4 -14 8 -3 7 -30 24 -133 82 -68 39 -247
127 -315 155 -36 15 -78 33 -95 40 -124 54 -416 139 -600 173 -106 20 -125 23
-225 36 -25 4 -63 9 -85 12 -45 7 -532 13 -585 7z m465 -168 c55 -3 114 -8
130 -10 17 -2 59 -7 95 -10 36 -4 67 -9 70 -10 3 -2 26 -6 50 -10 25 -3 61
-10 80 -15 19 -5 49 -11 65 -14 237 -41 648 -202 912 -357 1073 -631 1685
-1788 1599 -3029 -82 -1185 -846 -2251 -1952 -2725 -200 -86 -521 -182 -699
-209 -22 -4 -67 -11 -100 -16 -192 -30 -520 -42 -700 -26 -128 12 -150 15
-253 30 -1126 169 -2093 944 -2515 2016 -63 162 -135 407 -161 550 -3 19 -8
44 -10 55 -2 11 -7 40 -10 65 -3 25 -8 54 -10 65 -2 11 -7 56 -11 100 -4 44
-9 94 -11 110 -6 45 -5 403 1 455 2 25 7 73 10 108 2 34 7 75 9 90 30 181 42
244 67 344 109 449 310 854 619 1250 95 122 388 410 520 512 328 254 679 437
1055 551 113 34 300 78 383 91 20 3 44 7 52 9 8 2 42 7 75 10 33 3 71 8 85 10
14 3 77 8 140 11 63 4 116 7 117 8 4 4 199 -2 298 -9z"/>
<path d="M3217 6554 c-1 -1 -40 -4 -87 -8 -47 -4 -96 -8 -110 -11 -14 -2 -41
-6 -60 -8 -418 -51 -893 -234 -1275 -490 -59 -39 -215 -155 -225 -166 -3 -3
-27 -24 -55 -46 -70 -56 -262 -246 -332 -330 -108 -128 -283 -371 -283 -392 0
-8 184 -115 205 -120 6 -2 37 38 69 88 69 106 196 268 211 268 6 1 26 -13 45
-30 19 -17 57 -49 84 -72 27 -23 54 -46 60 -52 6 -5 22 -19 34 -30 l23 -19 77
79 c261 269 541 457 874 589 107 42 257 90 314 100 13 3 27 7 31 9 5 3 26 8
47 11 22 4 42 8 44 11 4 3 -9 86 -25 160 -2 11 -6 34 -9 50 -3 17 -9 46 -15
65 -5 19 -9 38 -9 41 0 7 25 12 104 25 21 3 48 7 59 10 12 2 59 7 106 10 47 4
100 8 116 9 17 2 40 3 53 4 22 1 22 3 22 124 l0 123 -46 0 c-25 0 -46 -1 -47
-2z"/>
<path d="M3479 6557 c-1 -1 -3 -57 -4 -124 -1 -83 2 -123 9 -124 6 -1 34 -2
61 -4 68 -3 216 -16 240 -21 22 -4 64 -11 109 -19 16 -2 30 -6 33 -9 2 -2 -9
-72 -26 -154 -17 -83 -31 -155 -31 -161 0 -8 15 -14 75 -25 153 -30 374 -109
559 -202 263 -131 466 -280 672 -493 75 -77 83 -83 101 -70 17 12 79 65 167
143 12 10 31 25 44 34 21 14 24 13 38 -7 9 -12 24 -29 33 -39 23 -22 126 -160
180 -240 28 -42 48 -62 57 -58 8 3 57 31 109 61 l95 56 -52 77 c-304 454 -687
797 -1163 1043 -283 146 -678 273 -950 304 -27 3 -61 8 -75 10 -41 7 -279 26
-281 22z"/>
<path d="M3198 5415 c-2 -2 -29 -7 -61 -10 -89 -11 -112 -19 -110 -41 3 -31
10 -68 33 -179 13 -65 19 -94 25 -128 3 -15 12 -59 20 -97 8 -38 17 -82 20
-97 2 -16 16 -84 30 -153 48 -232 48 -231 15 -241 -14 -4 -50 -15 -80 -24
-133 -40 -287 -135 -395 -243 l-50 -51 -115 101 c-63 55 -128 112 -145 127
-16 14 -84 73 -150 131 -66 58 -125 110 -131 115 -6 6 -29 25 -50 44 -21 19
-54 48 -72 65 l-32 30 -23 -24 c-125 -140 -261 -366 -331 -551 l-25 -66 62
-21 c34 -11 195 -66 357 -122 162 -56 329 -113 370 -127 41 -13 78 -28 82 -32
4 -4 3 -22 -3 -41 -40 -136 -47 -366 -14 -500 26 -103 26 -101 -30 -120 -76
-27 -596 -207 -709 -245 -54 -19 -101 -36 -104 -39 -7 -8 42 -134 90 -230 90
-180 256 -414 282 -399 11 7 116 97 150 128 6 6 47 42 91 80 44 38 94 82 110
96 17 15 91 79 165 144 74 65 143 126 154 137 18 19 19 19 75 -36 128 -125
289 -217 449 -256 29 -6 52 -14 52 -17 0 -3 -9 -51 -21 -106 -11 -56 -22 -111
-24 -122 -2 -11 -8 -45 -14 -75 -6 -30 -14 -67 -16 -82 -3 -16 -12 -56 -19
-90 -8 -35 -17 -79 -20 -98 -7 -42 -9 -51 -40 -205 -13 -66 -23 -123 -20 -126
2 -4 25 -9 51 -13 27 -3 60 -8 75 -11 73 -14 357 -21 390 -11 7 3 40 7 73 11
33 3 78 9 100 13 50 10 50 -4 2 232 -15 69 -28 136 -31 150 -2 14 -27 139 -55
279 -28 139 -51 255 -51 256 0 2 24 9 53 16 161 38 325 132 458 262 l46 45 25
-22 c41 -35 160 -140 178 -156 9 -8 65 -58 125 -110 61 -52 112 -97 115 -100
3 -3 57 -50 120 -105 63 -55 118 -104 122 -109 13 -19 74 52 176 205 73 109
202 374 202 414 0 14 -17 21 -260 104 -502 171 -605 209 -603 222 1 8 11 59
23 114 27 125 23 316 -8 435 -11 41 -17 78 -14 81 4 4 61 25 127 47 66 22 246
84 400 137 154 53 295 101 313 106 17 6 32 11 32 13 0 14 -73 179 -113 256
-66 127 -204 330 -250 368 -15 13 -9 18 -272 -212 -38 -34 -87 -77 -109 -96
-23 -19 -46 -39 -52 -45 -6 -5 -42 -37 -79 -70 -38 -33 -98 -86 -133 -117
l-65 -57 -65 65 c-36 35 -97 85 -136 111 -81 54 -228 120 -303 136 -51 11 -52
12 -47 42 2 16 7 37 9 45 2 8 6 31 9 50 3 19 10 50 15 68 5 18 10 35 10 37 -1
6 11 79 16 105 2 8 26 128 54 265 28 138 53 264 56 281 l5 32 -58 8 c-31 4
-66 10 -77 12 -25 5 -422 11 -427 7z"/>
<path d="M627 4811 c-37 -76 -67 -142 -67 -146 0 -4 -7 -21 -15 -38 -48 -104
-129 -383 -164 -567 -39 -205 -46 -290 -46 -560 0 -252 5 -319 36 -504 36
-216 91 -413 170 -614 44 -112 151 -332 161 -332 5 0 43 19 84 43 41 23 86 48
100 55 13 7 24 17 24 21 0 4 -24 59 -54 122 -53 113 -130 300 -124 303 2 1 72
24 156 51 83 27 152 52 152 55 0 4 -11 44 -25 91 -108 356 -135 729 -79 1089
16 101 65 308 88 375 8 22 11 43 8 46 -4 4 -70 28 -147 54 -77 26 -143 51
-147 54 -9 8 68 204 127 320 43 86 50 121 26 121 -5 0 -47 23 -94 50 -47 28
-89 50 -94 50 -5 0 -40 -62 -76 -139z"/>
<path d="M5970 4894 c-52 -31 -97 -58 -98 -59 -2 -2 19 -50 46 -107 91 -186
138 -316 119 -323 -7 -3 -72 -25 -146 -50 -74 -25 -138 -48 -142 -51 -4 -2 -1
-24 7 -47 17 -49 61 -216 69 -266 3 -19 8 -37 10 -41 2 -3 7 -35 10 -70 4 -36
8 -67 10 -70 7 -11 18 -205 18 -305 0 -125 -9 -243 -28 -378 -11 -75 -55 -260
-81 -341 -14 -43 -22 -82 -17 -86 4 -4 73 -29 153 -55 80 -26 146 -49 148 -50
5 -5 -78 -207 -130 -318 -28 -59 -49 -109 -47 -110 16 -12 203 -117 208 -117
7 0 80 147 134 270 104 235 192 583 224 880 10 93 10 513 1 595 -16 134 -18
151 -24 177 -3 15 -7 39 -9 55 -13 93 -70 322 -112 443 -66 191 -197 480 -217
480 -6 0 -54 -25 -106 -56z"/>
<path d="M890 1964 c-58 -35 -104 -69 -102 -76 5 -17 123 -188 186 -268 96
-123 225 -260 370 -395 210 -196 541 -407 836 -533 217 -93 494 -177 650 -198
25 -3 61 -9 80 -14 44 -10 167 -24 316 -35 l81 -6 0 125 c0 107 -3 126 -16
127 -77 5 -235 20 -271 25 -79 11 -170 26 -170 29 0 1 4 24 10 51 5 27 12 60
14 74 3 14 13 62 22 108 10 45 15 84 13 86 -3 3 -16 7 -29 9 -60 12 -197 50
-287 81 -383 131 -734 356 -1014 653 -45 47 -60 57 -71 49 -22 -16 -124 -105
-177 -153 -25 -24 -50 -43 -56 -42 -14 0 -132 148 -211 265 -36 54 -67 99 -68
100 0 0 -48 -28 -106 -62z"/>
<path d="M5745 1973 c-41 -67 -128 -187 -189 -259 l-51 -60 -122 107 -122 108
-88 -91 c-333 -342 -746 -578 -1208 -689 l-96 -23 5 -36 c6 -40 9 -52 36 -185
11 -54 18 -100 16 -102 -6 -6 -182 -31 -276 -39 -97 -8 -138 -11 -161 -13 -13
-1 -15 -19 -15 -123 l1 -123 50 1 c437 7 967 161 1390 402 412 235 799 601
1049 994 l36 57 -97 57 c-53 31 -104 59 -112 61 -10 2 -26 -13 -46 -44z"/>
</g>
</svg>
